<svg width="27" height="30" viewBox="0 0 27 30" fill="none" xmlns="http://www.w3.org/2000/svg">
<path d="M12.3219 1.00644C11.6291 1.2402 11.0013 1.78695 10.8594 2.50366C10.7937 2.83588 10.834 3.18125 10.7787 3.51537C10.6503 4.29026 10.0414 4.88205 9.47984 5.43174C8.91825 5.98143 8.33831 6.62014 8.29733 7.4045C8.25245 8.2634 8.87597 9.06805 8.76808 9.92133C8.64272 10.9127 7.59461 11.555 7.33552 12.5202C7.16251 13.1646 7.37452 13.8588 7.72331 14.4278C8.38798 15.5121 9.5241 16.2483 10.734 16.6429C11.9439 17.0375 13.2324 17.1205 14.5051 17.1338C16.0547 17.1501 17.7372 17.0172 18.9015 15.9955C19.5665 15.4066 19.9842 14.5884 20.0707 13.7048C20.1813 12.5213 19.6869 11.2985 20.0279 10.1597C20.2426 9.44303 20.7809 8.7885 20.7005 8.04475C20.622 7.31755 19.9862 6.8021 19.5501 6.21462C19.1428 5.66611 18.8957 5.01834 18.6536 4.37972L17.8249 2.19465C17.662 1.76511 17.4832 1.31334 17.1201 1.03141C16.4405 0.503623 15.3478 0.607322 14.5531 0.716177C13.8159 0.817162 13.0309 0.767255 12.3219 1.00644Z" fill="#2F2E41"/>
<path d="M12.5814 7.37159C12.5814 7.37159 12.9488 8.56423 10.1938 9.94035C7.4388 11.3165 10.4693 12.7843 10.4693 12.7843L13.6834 13.5183C13.6834 13.5183 16.9894 13.0595 17.3567 12.5091C17.7241 11.9587 18.3669 10.1238 18.1832 9.84861C18.0458 9.65265 17.8922 9.46853 17.7241 9.29816C17.7241 9.29816 15.5201 8.93119 15.6119 7.92204C15.7038 6.91289 12.5814 7.37159 12.5814 7.37159Z" fill="#FFB9B9"/>
<path opacity="0.1" d="M12.5814 7.37159C12.5814 7.37159 12.9488 8.56423 10.1938 9.94035C7.4388 11.3165 10.4693 12.7843 10.4693 12.7843L13.6834 13.5183C13.6834 13.5183 16.9894 13.0595 17.3567 12.5091C17.7241 11.9587 18.3669 10.1238 18.1832 9.84861C18.0458 9.65265 17.8922 9.46853 17.7241 9.29816C17.7241 9.29816 15.5201 8.93119 15.6119 7.92204C15.7038 6.91289 12.5814 7.37159 12.5814 7.37159Z" fill="black"/>
<path d="M14.3722 9.25229C15.9951 9.25229 17.3108 7.93792 17.3108 6.31657C17.3108 4.69522 15.9951 3.38086 14.3722 3.38086C12.7492 3.38086 11.4335 4.69522 11.4335 6.31657C11.4335 7.93792 12.7492 9.25229 14.3722 9.25229Z" fill="#FFB9B9"/>
<path d="M14.0508 12.509C14.0508 12.509 10.5117 12.2505 10.4446 9.81098C10.4446 9.81098 9.18361 9.66504 8.81628 10.032C8.44895 10.399 7.25513 10.6742 7.25513 11.5916C7.25513 12.509 9.27545 15.2613 9.27545 15.2613C9.27545 15.2613 10.3774 18.9309 9.91828 19.5731C9.45912 20.2153 9.36728 21.8666 9.36728 21.8666C9.36728 21.8666 13.9589 21.4996 14.6936 21.8666C15.4283 22.2336 18.3669 22.2336 18.5506 21.8666C18.7342 21.4996 18.3669 16.9126 18.3669 16.9126C18.3669 16.9126 19.1934 15.8117 19.0097 14.5273L21.2137 11.9586C21.2137 11.9586 20.3872 9.48156 19.1016 9.48156C19.1016 9.48156 17.3567 9.02285 17.3108 9.25221C17.2649 9.48156 18.1832 12.0503 14.0508 12.509Z" fill="#CBC3EB"/>
<path d="M5.7858 20.5822C5.7858 20.5822 6.6123 21.8666 8.72446 22.1418C10.8366 22.417 11.2039 21.6831 11.0203 21.4996C10.8366 21.3161 8.63262 20.4905 8.63262 20.4905L7.34696 19.4813L5.7858 20.5822Z" fill="#FFB9B9"/>
<path d="M20.8464 19.4813L18.4587 20.8574C18.4587 20.8574 15.3364 20.674 16.5303 21.5914C17.7241 22.5088 19.9281 22.1418 19.9281 22.1418L22.0402 21.1327L20.8464 19.4813Z" fill="#FFB9B9"/>
<path d="M8.90812 21.8666C8.90812 21.8666 6.70413 27.2793 9.36728 28.105C12.0304 28.9306 19.3771 28.7472 21.03 27.6463C22.683 26.5454 23.1422 25.0775 22.8667 24.6188C22.5912 24.1601 20.7546 22.8757 19.4689 22.784C18.1832 22.6922 8.90812 21.8666 8.90812 21.8666Z" fill="#2F2E41"/>
<path opacity="0.05" d="M8.90812 21.8666C8.90812 21.8666 6.70413 27.2793 9.36728 28.105C12.0304 28.9306 19.3771 28.7472 21.03 27.6463C22.683 26.5454 23.1422 25.0775 22.8667 24.6188C22.5912 24.1601 20.7546 22.8757 19.4689 22.784C18.1832 22.6922 8.90812 21.8666 8.90812 21.8666Z" fill="black"/>
<path d="M19.3116 22.203C19.3116 22.203 27.091 19.3897 26.9992 22.7841C26.9074 26.1785 22.0402 27.0959 22.0402 27.0959L20.5709 27.2794L12.4896 27.5546C12.4896 27.5546 12.7651 26.0868 12.1223 25.9033C12.1223 25.9033 14.2344 25.3529 14.3263 25.2611C14.4181 25.1694 19.6526 23.3345 20.0199 23.2428C20.3872 23.1511 21.4892 22.4171 22.3157 22.5089C22.3157 22.5089 23.2341 21.7749 24.2442 21.9584L21.3974 22.1419L19.3116 22.203Z" fill="#2F2E41"/>
<path opacity="0.1" d="M19.3116 22.203C19.3116 22.203 27.091 19.3897 26.9992 22.7841C26.9074 26.1785 22.0402 27.0959 22.0402 27.0959L20.5709 27.2794L12.4896 27.5546C12.4896 27.5546 12.7651 26.0868 12.1223 25.9033C12.1223 25.9033 14.2344 25.3529 14.3263 25.2611C14.4181 25.1694 19.6526 23.3345 20.0199 23.2428C20.3872 23.1511 21.4892 22.4171 22.3157 22.5089C22.3157 22.5089 23.2341 21.7749 24.2442 21.9584L21.3974 22.1419L19.3116 22.203Z" fill="black"/>
<path d="M17.9371 22.6585L18.9179 24.8941L24.887 22.784L25.3462 21.5914L23.7851 21.3162L20.6465 21.8666L19.2852 22.2336L17.9371 22.6585Z" fill="#2F2E41"/>
<path opacity="0.1" d="M17.9371 22.6585L18.9179 24.8941L24.887 22.784L25.3462 21.5914L23.7851 21.3162L20.6465 21.8666L19.2852 22.2336L17.9371 22.6585Z" fill="black"/>
<path d="M5.23481 25.3529C5.23481 25.3529 6.97963 27.5547 8.99995 28.1051C11.0203 28.6556 12.1223 27.9216 12.1223 27.9216L11.4794 25.3529L11.2039 23.7015L10.0101 22.8759L7.62246 21.775L4.77565 20.8575C4.77565 20.8575 3.58183 20.6741 3.58183 20.8575C3.58183 21.041 4.68382 23.7933 4.68382 23.7933L5.23481 25.3529Z" fill="#2F2E41"/>
<path d="M7.34695 26.5454C7.34695 26.5454 7.71428 29.2059 8.17345 29.3894C8.63261 29.5729 10.0101 29.2059 10.3774 29.0224C10.7448 28.8389 11.9934 27.9924 11.9934 27.9924C11.9934 27.9924 7.62245 26.3619 7.34695 26.5454Z" fill="#F2F2F2"/>
<path d="M15.7038 26.8207L17.4486 27.0959L17.2649 29.2059L14.8312 28.6154L15.7038 26.8207Z" fill="#FFB9B9"/>
<path d="M16.797 27.4079C16.797 27.4079 15.9792 28.3803 16.8057 28.9307L17.3567 29.3895C17.3567 29.3895 19.1934 29.7564 19.3771 29.9399C19.5607 30.1234 20.2954 29.6647 20.2954 29.6647C20.2954 29.6647 20.3872 26.9124 20.2954 26.729C20.2036 26.5455 19.1016 26.362 19.0097 26.5455C18.9179 26.729 17.8159 27.0042 17.1731 26.8207L16.797 27.4079Z" fill="#F2F2F2"/>
<path d="M9.45911 22.5088C9.45911 22.5088 3.03081 18.7474 2.02065 20.1235C1.01048 21.4997 -0.0915074 23.4262 2.84714 24.8941C5.78579 26.3619 14.9691 29.3894 14.9691 29.3894C14.9691 29.3894 16.3466 27.2794 16.3466 26.7289C16.3466 26.7289 11.4794 24.5271 10.6529 24.3436C9.82644 24.1602 6.52046 22.0501 6.06129 21.8666C5.60213 21.6831 4.9593 21.1327 4.9593 21.1327L9.45911 22.5088Z" fill="#2F2E41"/>
<path d="M7.62246 11.1329L7.25513 11.4082C7.25513 11.4082 6.42864 13.5182 6.3368 14.7108C6.24497 15.9035 5.14298 19.5731 5.23481 20.0318C5.32664 20.4905 5.41848 20.8575 5.96947 21.3162C5.96947 21.3162 6.70414 19.6649 7.9898 19.9401L9.55095 14.2521L7.62246 11.1329Z" fill="#CBC3EB"/>
<path d="M20.479 11.1329L21.2137 11.9586C21.2137 11.9586 21.6729 13.0595 21.6729 13.3347C21.6729 13.6099 22.5912 17.6466 22.683 17.83C22.7749 18.0135 23.1422 20.307 22.683 20.8575C22.2239 21.4079 21.3974 21.7749 21.3974 21.7749C21.3974 21.7749 21.9484 19.8483 20.2036 19.7566L20.3872 19.0227L18.7342 13.5182L20.479 11.1329Z" fill="#CBC3EB"/>
<path d="M7.80612 17.4491V22.2815C7.80612 22.5866 7.9263 22.8795 8.14068 23.0969C8.35506 23.3143 8.64643 23.4386 8.95184 23.4432L19.0679 23.5929C19.3715 23.5974 19.6649 23.483 19.8853 23.2743C20.1056 23.0656 20.2355 22.779 20.2472 22.4759L20.4333 17.6429C20.4392 17.4882 20.4142 17.3337 20.3595 17.1888C20.3048 17.0438 20.2217 16.9112 20.115 16.7988C20.0083 16.6864 19.8802 16.5965 19.7381 16.5343C19.5961 16.4721 19.4431 16.4389 19.288 16.4366L8.98593 16.2875C8.83181 16.2852 8.67877 16.3136 8.53574 16.371C8.3927 16.4284 8.2625 16.5136 8.15272 16.6217C8.04294 16.7298 7.95577 16.8586 7.89626 17.0007C7.83676 17.1427 7.80612 17.2952 7.80612 17.4491Z" fill="#3F3D56"/>
<path d="M14.5445 6.2223C16.2915 6.2223 17.7077 5.46049 17.7077 4.52076C17.7077 3.58102 16.2915 2.81921 14.5445 2.81921C12.7975 2.81921 11.3813 3.58102 11.3813 4.52076C11.3813 5.46049 12.7975 6.2223 14.5445 6.2223Z" fill="#2F2E41"/>
<path d="M14.0048 20.7198C14.4106 20.7198 14.7395 20.3912 14.7395 19.9859C14.7395 19.5805 14.4106 19.252 14.0048 19.252C13.5991 19.252 13.2702 19.5805 13.2702 19.9859C13.2702 20.3912 13.5991 20.7198 14.0048 20.7198Z" fill="#F2F2F2"/>
</svg>
